<?xml version="1.0" encoding="UTF-8"?>
<svg id="Layer_1" data-name="Layer 1" xmlns="http://www.w3.org/2000/svg" viewBox="0 0 704.38 48.54">
  <defs>
    <style>
      .cls-1 {
        fill: #fff;
      }

      .cls-2 {
        font-family: VladimirScript, 'Vladimir Script';
        font-size: 41.74px;
      }
    </style>
  </defs>
  <text class="cls-2" transform="translate(208.2 35.52)"><tspan x="0" y="0">Texas Stone Services</tspan></text>
  <path d="M158.38,26.78c-2.72,8.37,11.11,9.13,16.6,8.41,13.46-1.77,15.76-14.99-.21-18.31-33.82-7.02-81.81,11.27-116.14,17.05-13.39,2.25-46.45,6.88-56.21-4.37-2.21-2.55-4.2-8.35.25-9.55-1.15,3.45-1.8,4.43.57,7.61,10.64,14.24,53.64,4.72,68.73,1.04,27.75-6.78,80.25-27.43,106.19-14.03,7.47,3.86,14.34,12.29,5.24,18.83-6.01,4.32-18.38,4.9-24.39.33-2.52-1.91-4.9-5.83-.62-7Z"/>
  <g>
    <path class="cls-1" d="M529.4,35.38c-13.46-1.77-15.76-14.99.21-18.31,33.82-7.02,81.81,11.27,116.14,17.05,13.39,2.25,46.45,6.88,56.21-4.37,2.21-2.55,4.2-8.35-.25-9.55,1.15,3.45,1.8,4.43-.57,7.61-10.64,14.24-53.64,4.72-68.73,1.04-27.75-6.78-80.25-27.43-106.19-14.03-7.47,3.86-14.34,12.29-5.24,18.83,6.01,4.32,18.38,4.9,24.39.33,2.52-1.91,4.9-5.83.62-7,2.72,8.37-11.11,9.13-16.6,8.41Z"/>
    <path d="M545.12,25.34c2.72,8.37-11.11,9.13-16.6,8.41-13.46-1.77-15.76-14.99.21-18.31,33.82-7.02,81.81,11.27,116.14,17.05,13.39,2.25,46.45,6.88,56.21-4.37,2.21-2.55,4.2-8.35-.25-9.55,1.15,3.45,1.8,4.43-.57,7.61-10.64,14.24-53.64,4.72-68.73,1.04-27.75-6.78-80.25-27.43-106.19-14.03-7.47,3.86-14.34,12.29-5.24,18.83,6.01,4.32,18.38,4.9,24.39.33,2.52-1.91,4.9-5.83.62-7Z"/>
  </g>
</svg>